<?xml version="1.0" standalone="no"?>
<!DOCTYPE svg PUBLIC "-//W3C//DTD SVG 20010904//EN"
 "http://www.w3.org/TR/2001/REC-SVG-20010904/DTD/svg10.dtd">
<svg version="1.0" xmlns="http://www.w3.org/2000/svg"
 width="180.000000pt" height="186.000000pt" viewBox="0 0 180.000000 186.000000"
 preserveAspectRatio="xMidYMid meet">

<g transform="translate(0.000000,186.000000) scale(0.100000,-0.100000)"
fill="#A70000" stroke="none">
<path d="M166 1453 c4 -213 8 -389 9 -390 1 -2 150 99 331 223 181 125 346
238 366 251 l37 25 53 -30 c67 -38 117 -66 195 -109 35 -19 65 -39 68 -43 3
-5 -27 -53 -68 -107 -193 -257 -278 -375 -274 -379 2 -2 42 13 88 35 79 37
254 117 398 182 36 17 61 24 58 17 -3 -7 -102 -211 -221 -453 -119 -242 -216
-444 -216 -449 0 -17 144 4 227 33 136 47 226 104 333 211 76 76 104 113 142
185 108 208 125 427 48 638 -92 250 -295 435 -572 519 -70 21 -92 22 -541 26
l-468 3 7 -388z"/>
<path d="M663 1263 c-81 -59 -166 -119 -188 -135 -22 -15 -130 -92 -240 -171
l-200 -144 -3 -301 -2 -302 335 0 334 0 3 -100 3 -101 44 98 c101 229 311 716
309 718 -2 1 -119 -41 -261 -93 -142 -52 -260 -92 -263 -89 -3 3 59 168 138
366 79 199 143 361 142 361 -1 0 -69 -48 -151 -107z"/>
</g>
</svg>
